#!OML:ASF E:\emotionWalksFemale\Project 1\Capture day 1\Session 1\Female1.ASF
:FULLY-SPECIFIED
:DEGREES
74
root 9.86579 15.3711 -38.8304 -0.318689 -1.10148 0.206704
lowerback 6.67996 0.794215 0.0170209
upperback -4.45001 1.03822 -0.382245
thorax -8.43612 0.493039 -0.557131
lowerneck -4.61867 -7.03874 -8.77717
upperneck 17.7664 -9.33535 3.5885
head 6.76615 -4.829 1.87445
rclavicle -7.82715e-015 6.75868e-015
rhumerus -46.2427 22.1077 -102.715
rradius 33.2362
rwrist 12.9581
rhand -2.83754 -52.5707
rfingers 7.12502
rthumb 22.8699 -81.2346
lclavicle -7.82715e-015 6.75868e-015
lhumerus -43.823 -6.53417 90.1809
lradius 36.4978
lwrist -13.2099
lhand -6.18617 -33.0785
lfingers 7.12502
lthumb 19.6534 -4.05195
rfemur -3.7207 20.6743 23.5565
rtibia 26.8583
rfoot -21.2113 -33.9512
rtoes -9.50659
lfemur -6.59846 -21.125 -27.0944
ltibia 28.6032
lfoot -25.3909 21.7906
ltoes -13.3162
75
root 9.86539 15.3709 -38.8279 -0.329299 -1.16489 0.218794
lowerback 6.65683 0.806318 -0.0246641
upperback -4.43603 1.05091 -0.372607
thorax -8.40825 0.502093 -0.524737
lowerneck -4.49807 -7.04891 -8.77359
upperneck 17.6161 -9.34715 3.54208
head 6.69539 -4.83872 1.86445
rclavicle -3.42904e-015 9.93923e-017
rhumerus -46.2277 22.1779 -102.72
rradius 33.2199
rwrist 12.9342
rhand -2.80371 -52.4957
rfingers 7.12502
rthumb 22.9023 -81.1556
lclavicle -3.42904e-015 9.93923e-017
lhumerus -43.7455 -6.52734 90.2053
lradius 36.4385
lwrist -13.3452
lhand -6.46592 -33.5989
lfingers 7.12502
lthumb 19.3844 -4.54509
rfemur -3.71139 20.5854 23.5303
rtibia 26.8643
rfoot -21.2996 -33.7931
rtoes -9.5678
lfemur -6.57723 -21.1879 -27.1229
ltibia 28.6065
lfoot -25.6704 21.6845
ltoes -11.8199
76
root 9.86504 15.3712 -38.8282 -0.301948 -1.09621 0.225982
lowerback 6.66338 0.781401 -0.0416618
upperback -4.45384 1.0154 -0.376195
thorax -8.43187 0.485526 -0.514409
lowerneck -4.44915 -7.0603 -8.74514
upperneck 17.5817 -9.35569 3.46644
head 6.67157 -4.84715 1.83747
rclavicle -3.08116e-015 -2.28602e-015
rhumerus -46.2437 22.1458 -102.712
rradius 33.262
rwrist 12.7613
rhand -2.82518 -52.4688
rfingers 7.12502
rthumb 22.8817 -81.1312
lclavicle -3.08116e-015 -2.28602e-015
lhumerus -43.7115 -6.50742 90.1969
lradius 36.5148
lwrist -13.3078
lhand -6.03433 -33.5304
lfingers 7.12502
lthumb 19.7994 -4.51887
rfemur -3.71976 20.5283 23.5187
rtibia 26.843
rfoot -21.2899 -33.7557
rtoes -9.71106
lfemur -6.6337 -21.2175 -27.1118
ltibia 28.6149
lfoot -25.6072 21.6692
ltoes -11.883
77
root 9.86339 15.37 -38.826 -0.31986 -1.23098 0.188436
lowerback 6.65429 0.822996 -0.0494512
upperback -4.44388 1.07184 -0.357857
thorax -8.41586 0.514206 -0.498202
lowerneck -4.39317 -7.06074 -8.76257
upperneck 17.5504 -9.35457 3.44547
head 6.65175 -4.84988 1.83614
rclavicle -1.76173e-014 -1.2921e-015
rhumerus -46.2396 22.1313 -102.706
rradius 33.3102
rwrist 12.5136
rhand -2.80271 -52.5776
rfingers 7.12502
rthumb 22.9033 -81.2374
lclavicle -1.76173e-014 -1.2921e-015
lhumerus -43.6724 -6.45408 90.17
lradius 36.5577
lwrist -13.3425
lhand -5.78221 -33.2781
lfingers 7.12502
lthumb 20.0417 -4.29172
rfemur -3.70665 20.6191 23.5702
rtibia 26.8329
rfoot -21.2356 -33.6635
rtoes -9.43811
lfemur -6.59155 -21.1058 -27.0868
ltibia 28.6438
lfoot -25.4969 21.8437
ltoes -12.5953
78
root 9.86138 15.3743 -38.826 -0.199512 -1.18257 0.154014
lowerback 6.52986 0.799793 -0.0512342
upperback -4.46472 1.04169 -0.34586
thorax -8.36587 0.500238 -0.478492
lowerneck -4.38963 -7.06181 -8.76194
upperneck 17.5631 -9.35138 3.41529
head 6.65368 -4.85066 1.82669
rclavicle 2.93456e-014 3.08116e-015
rhumerus -46.1964 22.1428 -102.69
rradius 33.3282
rwrist 12.3595
rhand -2.66266 -52.8365
rfingers 7.12502
rthumb 23.0377 -81.4795
lclavicle 2.93456e-014 3.08116e-015
lhumerus -43.5471 -6.39668 90.1352
lradius 36.4359
lwrist -13.488
lhand -5.82121 -33.2045
lfingers 7.12502
lthumb 20.0042 -4.21421
rfemur -3.84926 20.5767 23.556
rtibia 26.8179
rfoot -21.365 -33.6949
rtoes -8.94754
lfemur -6.7367 -21.127 -26.9954
ltibia 28.6784
lfoot -25.356 21.9264
ltoes -13.4684
79
root 9.86087 15.3686 -38.8245 -0.386506 -1.25387 0.122189
lowerback 6.69462 0.818272 -0.0374266
upperback -4.41752 1.06895 -0.328446
thorax -8.41133 0.513076 -0.473891
lowerneck -4.34908 -7.05944 -8.77259
upperneck 17.5761 -9.3474 3.39472
head 6.65022 -4.85167 1.82354
rclavicle 4.62174e-015 1.78906e-015
rhumerus -46.2545 22.1338 -102.694
rradius 33.319
rwrist 12.438
rhand -2.71012 -52.5726
rfingers 7.12502
rthumb 22.9921 -81.2213
lclavicle 4.62174e-015 1.78906e-015
lhumerus -43.4752 -6.37116 90.1389
lradius 36.3044
lwrist -13.5533
lhand -6.62045 -33.6637
lfingers 7.12502
lthumb 19.2358 -4.59502
rfemur -3.65652 20.4272 23.6414
rtibia 26.8165
rfoot -21.3553 -33.6506
rtoes -9.4341
lfemur -6.51077 -21.1793 -27.0544
ltibia 28.7091
lfoot -25.4828 21.9953
ltoes -13.3166
80
root 9.86193 15.3661 -38.8211 -0.408603 -1.36395 0.105149
lowerback 6.77042 0.852361 -0.0606192
upperback -4.46851 1.11517 -0.288987
thorax -8.51206 0.537879 -0.427638
lowerneck -4.24175 -7.05058 -8.85323
upperneck 17.6013 -9.33661 3.3913
head 6.64321 -4.85373 1.83972
rclavicle 7.00716e-015 -2.78299e-015
rhumerus -46.3948 22.1084 -102.687
rradius 33.3695
rwrist 12.348
rhand -2.65448 -52.5587
rfingers 7.12502
rthumb 23.0455 -81.2007
lclavicle 7.00716e-015 -2.78299e-015
lhumerus -43.5946 -6.36492 90.2078
lradius 36.3595
lwrist -13.4789
lhand -6.72362 -33.5368
lfingers 7.12502
lthumb 19.1366 -4.45823
rfemur -3.66929 20.348 23.6334
rtibia 26.8415
rfoot -20.9961 -33.5277
rtoes -10.4743
lfemur -6.46873 -21.235 -27.0751
ltibia 28.7125
lfoot -25.561 22.067
ltoes -12.7692
81
root 9.85995 15.3682 -38.8237 -0.436512 -1.30624 0.116402
lowerback 6.61128 0.809827 -0.0164254
upperback -4.31835 1.05927 -0.337664
thorax -8.25467 0.507488 -0.491391
lowerneck -4.15024 -7.05669 -8.85718
upperneck 17.4657 -9.35876 3.45251
head 6.58814 -4.86032 1.86307
rclavicle 1.37783e-014 -1.98785e-015
rhumerus -46.1582 22.2019 -102.723
rradius 33.3387
rwrist 12.3591
rhand -2.72671 -52.6589
rfingers 7.12502
rthumb 22.9762 -81.3097
lclavicle 1.37783e-014 -1.98785e-015
lhumerus -43.3645 -6.35073 90.08
lradius 36.3968
lwrist -13.4751
lhand -6.56965 -33.3585
lfingers 7.12502
lthumb 19.2847 -4.2947
rfemur -3.64442 20.2619 23.6433
rtibia 26.8815
rfoot -20.9178 -33.4305
rtoes -10.4868
lfemur -6.45649 -21.124 -27.0659
ltibia 28.7083
lfoot -25.4503 21.9613
ltoes -12.9879
82
root 9.86152 15.3662 -38.8136 -0.493384 -1.48939 0.127057
lowerback 6.74557 0.871838 -0.119577
upperback -4.42035 1.13707 -0.264204
thorax -8.44687 0.553052 -0.370389
lowerneck -3.98504 -6.98315 -8.92678
upperneck 17.4113 -9.26173 3.43948
head 6.53885 -4.82097 1.88522
rclavicle 6.06293e-015 5.26779e-015
rhumerus -46.4698 22.2277 -102.72
rradius 33.3706
rwrist 12.5308
rhand -2.81123 -52.7076
rfingers 7.12502
rthumb 22.8951 -81.3684
lclavicle 6.06293e-015 5.26779e-015
lhumerus -43.5575 -6.17997 90.1714
lradius 36.3964
lwrist -13.6001
lhand -6.03313 -33.3428
lfingers 7.12502
lthumb 19.8005 -4.33132
rfemur -3.58139 20.2237 23.6301
rtibia 26.9115
rfoot -21.1962 -33.2132
rtoes -10.0343
lfemur -6.3016 -21.2501 -27.1645
ltibia 28.687
lfoot -25.5626 22.2432
ltoes -12.9605
83
root 9.8574 15.3683 -38.8213 -0.449522 -1.28817 0.1456
lowerback 6.79751 0.785461 -0.189855
upperback -4.43391 1.01413 -0.257547
thorax -8.49388 0.497212 -0.307777
lowerneck -3.79806 -6.98778 -9.01504
upperneck 17.3436 -9.28529 3.50379
head 6.49389 -4.83551 1.92525
rclavicle 1.05791e-014 4.07509e-015
rhumerus -46.4369 22.1957 -102.67
rradius 33.4994
rwrist 12.3788
rhand -2.48041 -52.8513
rfingers 7.12502
rthumb 23.2125 -81.4724
lclavicle 1.05791e-014 4.07509e-015
lhumerus -43.5389 -6.16435 90.1777
lradius 36.4151
lwrist -13.6549
lhand -6.54311 -33.7149
lfingers 7.12502
lthumb 19.3102 -4.65368
rfemur -3.63398 20.1833 23.6193
rtibia 26.9205
rfoot -21.4681 -33.2946
rtoes -9.50577
lfemur -6.4226 -21.2511 -27.1026
ltibia 28.6766
lfoot -25.3762 22.0884
ltoes -13.4486
84
root 9.85896 15.3699 -38.812 -0.386071 -1.44822 0.137502
lowerback 6.49911 0.811233 -0.16004
upperback -4.37977 1.05347 -0.247689
thorax -8.2598 0.515772 -0.31397
lowerneck -3.85975 -6.87063 -9.01745
upperneck 17.2146 -9.12175 3.54897
head 6.45429 -4.75122 1.95331
rclavicle 2.95692e-015 2.68359e-015
rhumerus -46.4368 22.2462 -102.675
rradius 33.5545
rwrist 12.3594
rhand -2.46784 -52.7904
rfingers 7.12502
rthumb 23.2246 -81.41
lclavicle 2.95692e-015 2.68359e-015
lhumerus -43.5481 -6.16589 90.2565
lradius 36.658
lwrist -13.3855
lhand -6.00686 -33.4296
lfingers 7.12502
lthumb 19.8258 -4.42073
rfemur -3.69566 20.1572 23.5744
rtibia 26.9026
rfoot -21.2206 -33.2066
rtoes -9.92277
lfemur -6.44671 -21.2687 -27.1026
ltibia 28.6842
lfoot -25.6616 22.0986
ltoes -12.412
85
root 9.8573 15.3685 -38.8092 -0.39877 -1.45765 0.0917852
lowerback 6.41309 0.810787 -0.119233
upperback -4.33666 1.05735 -0.246244
thorax -8.1621 0.515706 -0.333919
lowerneck -3.86548 -6.87106 -9.01777
upperneck 17.2926 -9.12334 3.54504
head 6.48017 -4.75287 1.95085
rclavicle 1.09766e-014 -6.85807e-015
rhumerus -46.369 22.1914 -102.654
rradius 33.5151
rwrist 12.4348
rhand -2.43162 -52.7532
rfingers 7.12502
rthumb 23.2594 -81.3684
lclavicle 1.09766e-014 -6.85807e-015
lhumerus -43.5193 -6.18617 90.2638
lradius 36.7414
lwrist -13.3196
lhand -5.74214 -33.3424
lfingers 7.12502
lthumb 20.0802 -4.36011
rfemur -3.63856 20.237 23.6543
rtibia 26.8462
rfoot -21.095 -33.3311
rtoes -9.93905
lfemur -6.43539 -21.1958 -27.0462
ltibia 28.7221
lfoot -25.7502 21.918
ltoes -11.8828
86
root 9.85573 15.3691 -38.8019 -0.337193 -1.5171 0.0402744
lowerback 6.56615 0.826262 0.0307039
upperback -4.52947 1.08624 -0.335493
thorax -8.45567 0.517135 -0.521072
lowerneck -3.77471 -6.84048 -8.88144
upperneck 17.4792 -9.10611 3.52221
head 6.51473 -4.74115 1.925
rclavicle 1.03865e-014 9.93923e-017
rhumerus -46.5548 21.8726 -102.788
rradius 33.4384
rwrist 12.5543
rhand -2.20039 -53.1538
rfingers 7.12502
rthumb 23.4812 -81.7408
lclavicle 1.03865e-014 9.93923e-017
lhumerus -43.8734 -6.35282 90.1695
lradius 36.8184
lwrist -13.2538
lhand -5.71129 -33.3053
lfingers 7.12502
lthumb 20.1099 -4.32605
rfemur -3.64822 20.424 23.7297
rtibia 26.8019
rfoot -21.1525 -33.4197
rtoes -9.72723
lfemur -6.46115 -21.1845 -26.9789
ltibia 28.7545
lfoot -25.7465 21.9185
ltoes -11.862
87
root 9.8525 15.3703 -38.7987 -0.30114 -1.43681 -0.00467253
lowerback 6.37873 0.803405 0.0709935
upperback -4.45972 1.05849 -0.353504
thorax -8.26933 0.501575 -0.554726
lowerneck -3.80832 -6.84976 -8.82848
upperneck 17.4525 -9.12152 3.53099
head 6.5106 -4.74381 1.91728
rclavicle -1.70209e-015 -3.97569e-016
rhumerus -46.434 21.8918 -102.806
rradius 33.3944
rwrist 12.6125
rhand -2.23207 -53.355
rfingers 7.12502
rthumb 23.4508 -81.9459
lclavicle -1.70209e-015 -3.97569e-016
lhumerus -43.8036 -6.46416 90.1454
lradius 36.8726
lwrist -13.2025
lhand -5.61428 -33.185
lfingers 7.12502
lthumb 20.2031 -4.21563
rfemur -3.64013 20.3739 23.797
rtibia 26.7799
rfoot -21.2646 -33.4158
rtoes -9.60301
lfemur -6.49666 -21.2124 -26.9034
ltibia 28.7823
lfoot -25.7348 21.9105
ltoes -12.0352
88
root 9.85045 15.3713 -38.7962 -0.213919 -1.7162 -0.0182767
lowerback 6.18554 0.900539 0.0711171
upperback -4.42015 1.18812 -0.36456
thorax -8.1121 0.565404 -0.579526
lowerneck -3.86479 -6.87543 -8.81129
upperneck 17.448 -9.15066 3.51705
head 6.51938 -4.75682 1.90561
rclavicle 5.69021e-015 -1.03368e-014
rhumerus -46.3964 21.9571 -102.833
rradius 33.4839
rwrist 12.4682
rhand -2.24763 -53.5185
rfingers 7.12502
rthumb 23.4359 -82.1113
lclavicle 5.69021e-015 -1.03368e-014
lhumerus -43.7205 -6.50949 90.1355
lradius 36.8777
lwrist -13.196
lhand -5.71079 -33.3839
lfingers 7.12502
lthumb 20.1104 -4.40476
rfemur -3.79589 20.3122 23.7225
rtibia 26.7791
rfoot -21.0639 -33.0604
rtoes -10.0996
lfemur -6.55688 -21.1745 -26.8785
ltibia 28.7759
lfoot -25.9612 22.0219
ltoes -11.281
